<?xml version="1.0" standalone="no"?>
<!DOCTYPE svg PUBLIC "-//W3C//DTD SVG 1.1//EN" "http://www.w3.org/Graphics/SVG/1.1/DTD/svg11.dtd" >
<svg xmlns="http://www.w3.org/2000/svg">
<metadata></metadata>
<defs>
<font id="enzo_probold" horiz-adv-x="1392" >
<font-face units-per-em="2048" ascent="1696" descent="-352" />
<missing-glyph horiz-adv-x="423" />
<glyph horiz-adv-x="0" />
<glyph horiz-adv-x="0" />
<glyph horiz-adv-x="682" />
<glyph unicode="&#xd;" horiz-adv-x="423" />
<glyph unicode=" "  horiz-adv-x="423" />
<glyph unicode="&#x09;" horiz-adv-x="423" />
<glyph unicode="&#xa0;" horiz-adv-x="423" />
<glyph unicode="!" horiz-adv-x="647" d="M160 156q0 170 180 170t180 -170q0 -172 -180 -172q-88 0 -134 43.5t-46 128.5zM166 1419l342 33q-26 -770 -39 -1003h-258z" />
<glyph unicode="&#x22;" horiz-adv-x="829" d="M61 1470h301l-34 -641h-232zM467 1470h301l-35 -641h-229z" />
<glyph unicode="#" horiz-adv-x="1775" d="M96 285l54 260h262l71 346h-266l55 258h263l45 285h305l-64 -285h303l50 285h303l-62 -285h264l-55 -258h-264l-70 -346h266l-55 -260h-264l-51 -285h-297l61 285h-307l-51 -285h-299l67 285h-264zM676 524h338l78 387h-336z" />
<glyph unicode="$" horiz-adv-x="1210" d="M78 109l98 243q188 -102 428 -102q225 0 225 153q0 22 -7 41t-17 32.5t-30 26t-35.5 20.5t-44.5 17t-47 13.5t-53 13.5t-52 13q-53 14 -89.5 25.5t-86.5 32t-84 42.5t-70.5 56t-58 74t-36 95.5t-14.5 120.5q0 178 104.5 288.5t283.5 135.5v223h243v-223q184 -19 342 -104 l-92 -246q-169 84 -352 84q-100 0 -160.5 -35.5t-60.5 -110.5q0 -33 12.5 -58.5t31 -40.5t47 -28t52.5 -19t57.5 -15t51.5 -15q176 -47 254 -86q210 -102 227 -309q2 -20 2 -41q0 -184 -106 -301t-306 -141v-224h-243v222q-240 22 -414 127z" />
<glyph unicode="%" horiz-adv-x="2078" d="M94 1016q0 229 96 335.5t312 106.5q215 0 311 -107t96 -335t-96.5 -335.5t-310.5 -107.5q-216 0 -312 107t-96 336zM340 1016q0 -133 33.5 -195.5t128.5 -62.5q96 0 129 62t33 196t-33 196t-129 62q-95 0 -128.5 -62.5t-33.5 -195.5zM651 25l609 1433l167 -49l-608 -1434 zM1171 418q0 229 95.5 335.5t310.5 106.5q216 0 312 -106.5t96 -335.5t-96 -336t-312 -107q-215 0 -310.5 107t-95.5 336zM1415 418q0 -133 33.5 -195.5t128.5 -62.5q97 0 129.5 62t32.5 196t-32.5 196t-129.5 62q-95 0 -128.5 -62.5t-33.5 -195.5z" />
<glyph unicode="&#x26;" horiz-adv-x="1470" d="M104 403q0 78 27 141t71.5 101.5t94.5 60t102 27.5q-100 19 -164.5 101t-64.5 206q0 336 373 402l90 -244q-160 -32 -160 -182q0 -50 12.5 -84t31.5 -53t55 -28.5t68.5 -12t86.5 -2.5h156v233l313 39v-236l201 -28v-236h-201v-608h-573q-265 0 -392 97t-127 306zM432 428 q0 -109 71 -144.5t255 -35.5h125v360h-191q-138 0 -199 -37.5t-61 -142.5z" />
<glyph unicode="'" horiz-adv-x="423" d="M61 1470h301l-34 -641h-232z" />
<glyph unicode="(" horiz-adv-x="653" d="M61 592q0 460 293 903l213 -102q-231 -418 -231 -801t231 -801l-213 -102q-293 443 -293 903z" />
<glyph unicode=")" horiz-adv-x="653" d="M86 -209q231 418 231 801t-231 801l213 102q293 -443 293 -903t-293 -903z" />
<glyph unicode="*" horiz-adv-x="991" d="M68 1038l75 224l252 -95l-14 267h237l-18 -267l248 97l76 -224l-258 -71l163 -209l-188 -137l-145 225l-148 -223l-186 137l164 209z" />
<glyph unicode="+" d="M195 479v283h358v334h285v-334h358v-283h-358v-334h-285v334h-358z" />
<glyph unicode="," horiz-adv-x="563" d="M57 -287l119 693l330 20l-234 -713h-215z" />
<glyph unicode="-" horiz-adv-x="899" d="M119 477v285h661v-285h-661z" />
<glyph unicode="." horiz-adv-x="593" d="M115 164q0 180 182 180t182 -180t-182 -180t-182 180z" />
<glyph unicode="/" horiz-adv-x="751" d="M61 23l359 1433l270 -45l-358 -1434z" />
<glyph unicode="0" horiz-adv-x="1327" d="M96 717q0 385 133 563t435 178t434.5 -178t132.5 -563t-132.5 -563.5t-434.5 -178.5t-435 178.5t-133 563.5zM410 717q0 -96 6.5 -165.5t23.5 -129t45.5 -96t73 -56.5t105.5 -20t105.5 20t73 56.5t45.5 96t23.5 129t6.5 165.5q0 97 -6.5 167t-23.5 129.5t-45.5 95.5 t-72.5 55.5t-106 19.5t-106 -19.5t-72.5 -55.5t-45.5 -95.5t-23.5 -129.5t-6.5 -167z" />
<glyph unicode="1" horiz-adv-x="577" d="M133 0v1393l311 41v-1434h-311z" />
<glyph unicode="2" horiz-adv-x="1173" d="M78 1333q101 70 226.5 97.5t301.5 27.5q221 0 347 -108t126 -310q0 -147 -70 -280t-191.5 -245.5t-313.5 -240.5h571v-274h-930l-51 274q109 73 195.5 137t174 139.5t145 142.5t94 140t36.5 138q0 113 -49.5 162t-159.5 49q-183 0 -352 -88z" />
<glyph unicode="3" horiz-adv-x="1200" d="M66 115l104 237q181 -102 405 -102q117 0 181.5 48.5t64.5 162.5q0 95 -68.5 141.5t-187.5 46.5q-19 0 -65 -4l-131 -16l-60 239l400 291h-588v275h903l59 -275l-452 -319q132 0 230 -31.5t156 -88.5t85.5 -130t27.5 -162q0 -215 -137.5 -334t-402.5 -119 q-309 0 -524 140z" />
<glyph unicode="4" horiz-adv-x="1267" d="M78 580q101 186 143 396t47 468l328 -25q-48 -500 -221 -839h364v499l312 37v-536h147v-246h-147v-334h-312v334h-585z" />
<glyph unicode="5" horiz-adv-x="1196" d="M61 117l105 235q182 -102 409 -102q136 0 193 52t57 167q0 104 -68.5 144t-211.5 40q-136 0 -322 -59l-104 235l69 605h830v-275h-580l-45 -299q118 33 242 33q234 0 368 -122t134 -325q0 -100 -32 -183.5t-96 -149t-170 -102t-245 -36.5q-326 0 -533 142z" />
<glyph unicode="6" horiz-adv-x="1263" d="M86 717q0 187 41 330t116 232t175 134t223 45q148 0 260 -25t203 -85l-109 -240q-135 76 -313 76q-148 0 -212 -85t-69 -272q94 136 334 136q215 0 334 -122.5t119 -336.5q0 -117 -31 -212t-94.5 -166.5t-167.5 -111t-242 -39.5q-302 0 -434.5 178.5t-132.5 563.5z M403 580q9 -167 66.5 -248.5t185.5 -81.5q116 0 173 69.5t57 182.5q0 120 -54 172.5t-165 52.5q-180 0 -263 -147z" />
<glyph unicode="7" horiz-adv-x="1093" d="M68 1159v275h927l52 -275q-114 -99 -198 -229t-134.5 -283t-79 -307t-43.5 -340h-336q48 382 157.5 667.5t307.5 491.5h-653z" />
<glyph unicode="8" horiz-adv-x="1277" d="M92 416q0 254 223 321q-184 71 -184 314q0 64 18 122t58 110.5t98 91t144 61t190 22.5q105 0 192 -23.5t146 -62.5t99 -92.5t58.5 -112.5t18.5 -123q0 -112 -49 -192.5t-150 -116.5q232 -73 232 -327q0 -202 -136.5 -317.5t-410.5 -115.5q-146 0 -253 32.5t-170.5 92.5 t-93.5 138.5t-30 177.5zM389 432q0 -102 57.5 -151.5t196.5 -49.5q130 0 186 42t56 122q0 38 -18 68.5t-46.5 51t-77.5 38t-95.5 28t-115.5 23.5q-143 -54 -143 -172zM424 1047q0 -23 5.5 -43.5t13 -36.5t24 -30.5t29 -24t38 -20.5t41 -17t47.5 -14.5t49 -12.5t54 -12 q131 61 131 176q0 94 -51.5 142t-167.5 48q-213 0 -213 -155z" />
<glyph unicode="9" horiz-adv-x="1263" d="M76 930q0 117 31 211.5t94 166.5t167 111t242 39q302 0 435 -178t133 -563q0 -187 -41 -330.5t-116 -232.5t-175 -134t-223 -45q-147 0 -259.5 25.5t-203.5 85.5l108 240q135 -76 314 -76q148 0 211.5 84.5t68.5 271.5q-94 -135 -334 -135q-215 0 -333.5 122.5 t-118.5 336.5zM379 932q0 -120 54 -172.5t165 -52.5q179 0 262 147q-9 167 -66.5 248.5t-185.5 81.5q-116 0 -172.5 -69.5t-56.5 -182.5z" />
<glyph unicode=":" horiz-adv-x="598" d="M117 164q0 180 182 180t182 -180t-182 -180t-182 180zM117 784q0 89 46.5 135t135.5 46t135.5 -46t46.5 -135q0 -180 -182 -180t-182 180z" />
<glyph unicode=";" horiz-adv-x="622" d="M53 -287l119 693l330 20l-234 -713h-215zM141 784q0 89 47 135t136 46t135.5 -46t46.5 -135q0 -180 -182 -180q-90 0 -136.5 45.5t-46.5 134.5z" />
<glyph unicode="&#x3c;" d="M195 510v227l880 410l121 -287l-709 -239l709 -228l-121 -284z" />
<glyph unicode="=" d="M195 256v272h1001v-272h-1001zM195 713v272h1001v-272h-1001z" />
<glyph unicode="&#x3e;" d="M195 393l710 228l-710 239l120 287l881 -410v-227l-881 -404z" />
<glyph unicode="?" horiz-adv-x="937" d="M127 1208l31 244q47 8 106 8q301 0 459 -126t158 -326q0 -310 -324 -361l-10 -198h-256l-21 354q154 20 218.5 64t64.5 143q0 116 -101.5 157t-324.5 41zM238 156q0 170 180 170t180 -170q0 -172 -180 -172q-88 0 -134 43.5t-46 128.5z" />
<glyph unicode="@" horiz-adv-x="1918" d="M94 432q0 1026 977 1026q349 0 551.5 -166.5t202.5 -482.5q0 -119 -23.5 -220.5t-75 -189.5t-128.5 -151.5t-189.5 -102t-253.5 -45.5l-31 142q-47 -72 -115 -109t-173 -37q-148 0 -227 94.5t-79 274.5q0 142 24 248t64.5 170.5t101.5 104t125 53.5t146 14q224 0 398 -76 q-2 -13 -10.5 -84.5t-10.5 -92t-9.5 -83.5t-10 -90.5t-7.5 -80t-7 -84.5t-3.5 -70.5t-1.5 -69.5v-39q268 101 268 495q0 116 -29 202.5t-91.5 150.5t-168.5 96.5t-255 32.5q-370 0 -546.5 -200.5t-176.5 -608.5q0 -288 123 -432t403 -144q240 0 469 113l68 -174 q-233 -140 -559 -140q-165 0 -298.5 45t-233 135t-154 236.5t-54.5 339.5zM768 492q0 -100 31 -153.5t112 -53.5q138 0 185 121l45 436q-62 22 -162 22q-104 0 -157.5 -85.5t-53.5 -286.5z" />
<glyph unicode="A" horiz-adv-x="1325" d="M27 0l471 1415l321 37l479 -1434l-340 -36l-79 286h-449l-72 -268h-331zM494 502h319l-162 579z" />
<glyph unicode="B" horiz-adv-x="1261" d="M123 0v1401q250 57 452 57q94 0 174 -11.5t155.5 -41t128.5 -75.5t84.5 -120t31.5 -170q0 -124 -64.5 -206t-164.5 -101q52 -6 101.5 -27.5t94 -60t71.5 -101.5t27 -141q0 -209 -126.5 -306t-391.5 -97h-573zM436 248h125q184 0 255 35.5t71 144.5q0 105 -61 142.5 t-199 37.5h-191v-360zM436 836h156q54 0 86.5 2.5t68.5 12t55 28.5t31.5 53t12.5 84q0 52 -20 90t-54.5 59t-75.5 31t-90 10q-88 0 -170 -16v-354z" />
<glyph unicode="C" horiz-adv-x="1193" d="M96 717q0 384 144.5 562.5t472.5 178.5q120 0 218.5 -22t198.5 -82l-106 -244q-141 72 -307 72q-76 0 -130.5 -21t-88 -58t-53 -97.5t-26.5 -127.5t-7 -161t7 -161t26.5 -127.5t53 -97.5t88 -58t130.5 -21q166 0 307 72l106 -244q-100 -60 -199 -82.5t-218 -22.5 q-327 0 -472 179t-145 563z" />
<glyph unicode="D" d="M123 0v1399q297 59 510 59q119 0 214.5 -20t181.5 -71.5t143 -133.5t90.5 -212.5t33.5 -303.5q0 -264 -68 -421.5t-205.5 -226.5t-363.5 -69h-536zM436 274q78 0 118.5 0.5t99.5 3.5t87 9t68.5 17t58 27t42.5 41t34 56.5t20 74.5t14 95t3 119q0 139 -21 232.5t-64.5 144 t-98 70.5t-133.5 20q-67 0 -228 -23v-887z" />
<glyph unicode="E" horiz-adv-x="1142" d="M123 0v1434h928v-277h-615v-280h498l-23 -248h-475v-353h615v-276h-928z" />
<glyph unicode="F" horiz-adv-x="1085" d="M123 0v1434h928v-277h-615v-332h498l-23 -247h-475v-578h-313z" />
<glyph unicode="G" horiz-adv-x="1368" d="M94 717q0 158 32.5 284t89 210.5t136.5 140.5t170.5 81t194.5 25q146 0 261.5 -23t219.5 -83l-113 -256q-137 78 -331 78q-175 0 -259.5 -104t-84.5 -347q0 -267 70 -371t257 -104q132 0 219 31v256h-256v229h570v-678q-237 -111 -541 -111q-159 0 -272.5 36.5 t-197 120.5t-124.5 229.5t-41 355.5z" />
<glyph unicode="H" horiz-adv-x="1372" d="M123 0v1434h313v-560h500v560h313v-1434h-313v600h-500v-600h-313z" />
<glyph unicode="I" horiz-adv-x="559" d="M123 0v1434h313v-1434h-313z" />
<glyph unicode="J" horiz-adv-x="612" d="M31 -168q87 59 116 137.5t29 206.5v1258h313v-1248q0 -197 -64 -322t-235 -218z" />
<glyph unicode="K" horiz-adv-x="1292" d="M123 0v1434h313v-662l426 662l363 -39l-482 -658l533 -694l-354 -70l-486 715v-688h-313z" />
<glyph unicode="L" horiz-adv-x="1136" d="M123 0v1434h313v-1158h641v-276h-954z" />
<glyph unicode="M" horiz-adv-x="1742" d="M88 0l129 1434h385l275 -1045l266 1045h385l127 -1428l-322 -24l-51 1017l-260 -999h-289l-287 999l-45 -999h-313z" />
<glyph unicode="N" horiz-adv-x="1421" d="M123 0v1397l360 55l314 -580q186 -347 239 -462q-37 255 -37 649v375h299v-1434h-346l-354 647q-10 18 -50.5 90t-57 103.5t-43.5 88t-46 105.5q21 -211 21 -610v-424h-299z" />
<glyph unicode="O" horiz-adv-x="1425" d="M96 717q0 384 144.5 562.5t472.5 178.5q327 0 471.5 -178t144.5 -563t-144.5 -563.5t-471.5 -178.5t-472 179t-145 563zM412 717q0 -94 7 -161t26.5 -128t53 -98t88 -58.5t130.5 -21.5q74 0 127 21.5t85.5 58.5t51.5 97.5t26 128t7 161.5t-7 161.5t-26 128t-51.5 97.5 t-85.5 58.5t-127 21.5q-76 0 -130.5 -21.5t-88 -58.5t-53 -98t-26.5 -128t-7 -161z" />
<glyph unicode="P" horiz-adv-x="1241" d="M123 0v1401q242 55 461 55q624 0 624 -518q0 -128 -42 -223t-120.5 -152.5t-182 -85.5t-234.5 -28q-77 0 -193 14v-463h-313zM436 702q95 -10 162 -10q69 0 119.5 11t92 37.5t62.5 75t21 118.5q0 248 -289 248q-75 0 -168 -21v-459z" />
<glyph unicode="Q" horiz-adv-x="1425" d="M96 717q0 384 144.5 562.5t472.5 178.5q327 0 471.5 -178t144.5 -563q0 -323 -100.5 -499.5t-321.5 -223.5q55 -81 246 -191l-289 -127q-153 127 -233 304q-284 20 -409.5 198t-125.5 539zM412 717q0 -94 7 -161t26.5 -128t53 -98t88 -58.5t130.5 -21.5q74 0 127 21.5 t85.5 58.5t51.5 97.5t26 128t7 161.5t-7 161.5t-26 128t-51.5 97.5t-85.5 58.5t-127 21.5q-76 0 -130.5 -21.5t-88 -58.5t-53 -98t-26.5 -128t-7 -161z" />
<glyph unicode="R" horiz-adv-x="1294" d="M123 0v1401q245 55 467 55q610 0 610 -510q0 -314 -252 -418l314 -510l-344 -43l-259 500h-223v-475h-313zM436 711h215q115 0 174.5 61t59.5 170q0 240 -277 240q-72 0 -172 -21v-450z" />
<glyph unicode="S" horiz-adv-x="1210" d="M78 109l98 243q188 -102 428 -102q225 0 225 153q0 22 -7 41t-17 32.5t-30 26t-35.5 20.5t-44.5 17t-47 13.5t-53 13.5t-52 13q-53 14 -89.5 25.5t-86.5 32t-84 42.5t-70.5 56t-58 74t-36 95.5t-14.5 120.5q0 203 133.5 317.5t354.5 114.5q282 0 485 -112l-92 -246 q-169 84 -352 84q-100 0 -160.5 -35.5t-60.5 -110.5q0 -33 12.5 -58.5t31 -40.5t47 -28t52.5 -19t57.5 -15t51.5 -15q176 -47 254 -86q210 -102 227 -309q2 -20 2 -41q0 -209 -134.5 -330t-387.5 -121q-319 0 -547 134z" />
<glyph unicode="T" horiz-adv-x="1177" d="M61 1157v277h1055v-277h-371v-1157h-313v1157h-371z" />
<glyph unicode="U" horiz-adv-x="1417" d="M115 717v717h313v-717q0 -242 62.5 -354.5t224.5 -112.5q67 0 115.5 19.5t79.5 55.5t49.5 95.5t26 129.5t7.5 167v717h310v-717q0 -384 -139 -563t-453 -179q-318 0 -457 178.5t-139 563.5z" />
<glyph unicode="V" horiz-adv-x="1318" d="M27 1415l340 37l307 -1100l297 1098l321 -35l-471 -1415h-319z" />
<glyph unicode="W" horiz-adv-x="1896" d="M27 1405l346 47l219 -1094l211 1055l307 39l233 -1094l197 1094l330 -33l-359 -1419h-342l-206 999l-201 -999h-356z" />
<glyph unicode="X" horiz-adv-x="1335" d="M27 0l442 748l-420 653l361 51l254 -489l243 471h355l-431 -686l478 -699l-334 -94l-324 553l-258 -508h-366z" />
<glyph unicode="Y" horiz-adv-x="1331" d="M27 1399l372 53l267 -649l278 631h361l-488 -910v-524h-313v524z" />
<glyph unicode="Z" horiz-adv-x="1196" d="M68 276l632 881h-604v277h942l49 -277l-632 -881h673l-28 -276h-973z" />
<glyph unicode="[" horiz-adv-x="700" d="M123 -287v1757h483v-239h-211v-1278h211v-240h-483z" />
<glyph unicode="\" horiz-adv-x="745" d="M61 1405l267 57l356 -1433l-266 -58z" />
<glyph unicode="]" horiz-adv-x="700" d="M94 -47h211v1278h-211v239h484v-1757h-484v240z" />
<glyph unicode="^" horiz-adv-x="1024" d="M61 805l336 665h230l336 -663l-242 -86l-207 493l-209 -491z" />
<glyph unicode="_" horiz-adv-x="1024" d="M-4 -154h1032v-161h-1032v161z" />
<glyph unicode="`" horiz-adv-x="563" d="M57 1550l314 19l135 -357l-217 -20z" />
<glyph unicode="a" horiz-adv-x="1148" d="M86 309q0 66 17.5 115t60.5 91.5t117 71t186 48.5t268 29q-6 110 -57 152t-148 42q-151 0 -299 -74l-90 220q178 102 437 102q212 0 334 -115.5t122 -310.5v-266q0 -247 29 -379l-234 -58q-35 89 -51 160q-47 -79 -122 -120.5t-191 -41.5q-379 0 -379 334zM385 319 q0 -61 34.5 -86.5t121.5 -25.5q72 0 116.5 35.5t77.5 107.5v117q-190 -10 -270 -45.5t-80 -102.5z" />
<glyph unicode="b" horiz-adv-x="1183" d="M123 41v1393l299 36v-512q75 148 295 148q186 0 283.5 -132.5t97.5 -432.5q0 -157 -34 -268t-100.5 -175.5t-155.5 -93.5t-208 -29q-264 0 -477 66zM422 236q76 -23 156 -23q120 0 169.5 72t49.5 256q0 166 -37.5 244.5t-145.5 78.5q-67 0 -111.5 -32t-80.5 -97v-499z " />
<glyph unicode="c" horiz-adv-x="948" d="M86 541q0 293 120 429t392 136q193 0 317 -74l-96 -219q-98 49 -221 49q-66 0 -108.5 -20.5t-64.5 -65t-30 -98.5t-8 -137t8 -137t30 -99t64.5 -65.5t108.5 -20.5q123 0 221 49l96 -219q-124 -74 -317 -74q-272 0 -392 136.5t-120 429.5z" />
<glyph unicode="d" horiz-adv-x="1191" d="M86 541q0 133 27 234.5t70 163t105 100.5t124 53t135 14q156 0 227 -66q-12 59 -12 205v189l299 36v-1056q0 -247 29 -379l-234 -58q-35 89 -51 160q-96 -162 -311 -162q-102 0 -176.5 30t-127 96.5t-78.5 175.5t-26 264zM387 541q0 -82 7 -136.5t26 -99.5t56 -66.5 t93 -21.5q68 0 112.5 32t80.5 97v485q-78 37 -162 37q-115 0 -164 -73t-49 -254z" />
<glyph unicode="e" horiz-adv-x="1116" d="M86 537q0 160 34 272.5t100 176.5t152 92t201 28q93 0 161 -15.5t128 -57.5t97 -113t58 -184t21 -269l-643 -68q13 -97 61.5 -139.5t143.5 -42.5q175 0 318 84l90 -207q-174 -119 -404 -119q-128 0 -221 29t-161 93.5t-102 174t-34 265.5zM383 588l365 57q-3 117 -46 169 t-129 52q-190 0 -190 -248v-30z" />
<glyph unicode="f" horiz-adv-x="763" d="M51 825v222h154q-8 49 -8 104q0 163 90 253.5t266 90.5q76 0 156 -14l-25 -226q-54 7 -78 7q-67 0 -96 -25t-29 -86q0 -37 13 -104h237l-26 -222h-197v-825h-299v825h-158z" />
<glyph unicode="g" horiz-adv-x="1169" d="M78 590q0 142 32.5 242t98.5 160t157.5 87t217.5 27q256 0 469 -66v-860q0 -248 -138.5 -384t-379.5 -136q-164 0 -306 57l60 232q101 -39 231 -39q116 0 175 56.5t59 205.5v59q-46 -85 -114 -122t-183 -37q-379 0 -379 518zM379 586q0 -70 7 -117t26 -86t56 -57.5 t93 -18.5q67 0 111 30t82 91v416q-68 24 -172 24t-153.5 -64.5t-49.5 -217.5z" />
<glyph unicode="h" horiz-adv-x="1187" d="M123 0v1434l299 36v-514q41 79 112.5 114.5t184.5 35.5q91 0 157.5 -28.5t104 -72t59.5 -109t28.5 -125t6.5 -134.5v-637h-299v596q0 142 -33.5 204t-119.5 62q-76 0 -119.5 -30t-81.5 -97v-735h-299z" />
<glyph unicode="i" horiz-adv-x="565" d="M106 1356q0 151 177 151q176 0 176 -151q0 -152 -176 -152q-177 0 -177 152zM133 371v676l299 34v-731q0 -246 27 -350h-281q-45 115 -45 371z" />
<glyph unicode="j" horiz-adv-x="581" d="M0 -172q84 62 117 133t33 191v895l299 34v-917q0 -180 -69 -307t-233 -211zM123 1356q0 151 176 151t176 -151q0 -152 -176 -152t-176 152z" />
<glyph unicode="k" horiz-adv-x="1105" d="M123 0v1434l299 36v-862l293 473l334 -32l-336 -463l379 -541l-324 -70l-346 572v-547h-299z" />
<glyph unicode="l" horiz-adv-x="565" d="M133 371v1065l299 34v-1120q0 -246 27 -350h-281q-45 115 -45 371z" />
<glyph unicode="m" horiz-adv-x="1808" d="M90 1047l234 57q35 -89 51 -160q92 162 309 162q244 0 326 -170q44 84 119.5 127t193.5 43q72 0 129 -15t95.5 -39t66.5 -61.5t43.5 -75.5t24.5 -89t11.5 -93t2.5 -96v-637h-299v596q0 142 -32.5 204t-115.5 62q-73 0 -114.5 -30t-77.5 -97v-735h-299v702q0 74 -38 117 t-110 43q-73 0 -114.5 -30t-77.5 -97v-735h-299v668q0 247 -29 379z" />
<glyph unicode="n" horiz-adv-x="1183" d="M90 1047l234 57q35 -89 51 -160q47 79 122 120.5t193 41.5q73 0 131.5 -15t98 -39t68 -61.5t44.5 -75.5t25 -89t11.5 -93t2.5 -96v-637h-299v596q0 142 -34 204t-120 62q-76 0 -119 -30t-81 -97v-735h-299v668q0 247 -29 379z" />
<glyph unicode="o" horiz-adv-x="1196" d="M86 541q0 293 120 429t392 136t392 -136t120 -429t-120 -429.5t-392 -136.5t-392 136.5t-120 429.5zM387 541q0 -83 8 -138t30 -100t64.5 -66.5t108.5 -21.5t108.5 21.5t64.5 66.5t30 100t8 138q0 66 -4.5 112.5t-18 89t-36.5 68t-61 40.5t-91 15t-91 -15t-61 -40.5 t-36.5 -68t-18 -89t-4.5 -112.5z" />
<glyph unicode="p" horiz-adv-x="1179" d="M90 1047l234 57q35 -89 51 -160q96 162 311 162q137 0 225 -54t135.5 -180t47.5 -331q0 -133 -27 -234.5t-70 -163.5t-105 -100.5t-124 -53t-135 -14.5q-156 0 -227 66q12 -59 12 -205v-151h-299v983q0 247 -29 379zM418 250q78 -37 162 -37q115 0 164 73.5t49 254.5 q0 166 -37.5 244.5t-145.5 78.5q-67 0 -111.5 -32t-80.5 -97v-485z" />
<glyph unicode="q" horiz-adv-x="1185" d="M86 541q0 157 34 267.5t100.5 175t155.5 93.5t208 29q264 0 477 -66v-1319l-299 -36v438q-75 -148 -295 -148q-186 0 -283.5 133t-97.5 433zM387 541q0 -82 7 -136.5t26 -99.5t56 -66.5t93 -21.5q68 0 112.5 32t80.5 97v500q-73 22 -156 22q-120 0 -169.5 -71.5 t-49.5 -255.5z" />
<glyph unicode="r" horiz-adv-x="770" d="M90 1047l234 57q36 -85 63 -191q95 172 313 193l39 -311h-30q-111 0 -179 -37t-112 -123v-635h-299v668q0 247 -29 379z" />
<glyph unicode="s" horiz-adv-x="966" d="M61 78l78 213q179 -84 338 -84q146 0 146 90q0 24 -12.5 42.5t-38 32t-53.5 23.5t-68 22q-7 2 -11 3q-45 13 -71.5 21.5t-69 25.5t-68.5 34t-57 44t-48.5 58t-29.5 74.5t-12 94.5q0 153 111 243.5t284 90.5q119 0 213 -19t180 -71l-81 -211q-131 61 -283 61 q-137 0 -137 -90q0 -20 10 -36t23 -27t42 -22.5t50 -18t65 -19.5q43 -12 73 -21.5t70 -26t67 -33.5t56 -43t46 -56t28.5 -71t11.5 -89q0 -168 -107.5 -253t-299.5 -85q-273 0 -445 103z" />
<glyph unicode="t" horiz-adv-x="757" d="M47 860v221h158v308l299 36v-344h223l-27 -221h-196v-371q0 -128 29.5 -221.5t101.5 -173.5l-201 -139q-49 27 -86.5 64t-62 81.5t-41 90t-25 100t-11.5 101.5t-3 104v364h-158z" />
<glyph unicode="u" horiz-adv-x="1183" d="M113 444v603l299 34v-596q0 -142 33.5 -204t119.5 -62q76 0 119.5 30t81.5 97v701l299 34v-667q0 -247 29 -379l-234 -58q-35 89 -51 160q-47 -79 -122 -120.5t-193 -41.5q-73 0 -131.5 15t-98 39t-68 61.5t-44.5 75.5t-25 89t-11.5 93t-2.5 96z" />
<glyph unicode="v" horiz-adv-x="1097" d="M25 1053l323 45l213 -848l217 848l295 -29l-354 -1069h-336z" />
<glyph unicode="w" horiz-adv-x="1693" d="M25 1055l315 45l197 -848l182 819l272 29l197 -848l182 848l299 -29l-297 -1071h-344l-172 739l-162 -739h-360z" />
<glyph unicode="x" horiz-adv-x="1110" d="M20 0l347 553l-347 504l347 47l186 -354l164 331h332l-326 -510l367 -491l-306 -119l-241 397l-201 -358h-322z" />
<glyph unicode="y" horiz-adv-x="1089" d="M20 1053l324 45l213 -848l217 848l295 -29l-305 -917q-29 -88 -69.5 -161.5t-99.5 -141t-143 -119t-188 -82.5l-121 194q172 65 228 185z" />
<glyph unicode="z" horiz-adv-x="1062" d="M70 240l505 602h-475v239h815l50 -239l-506 -602h534l-28 -240h-840z" />
<glyph unicode="{" horiz-adv-x="796" d="M61 715q51 5 85 16t57 41t35 56.5t18 92t7 116t1 157.5q0 78 32 137t88.5 94.5t128.5 52.5t157 17h45v-250q-105 0 -141.5 -35.5t-36.5 -148.5q0 -106 -7.5 -179t-28 -136t-59.5 -100.5t-98 -53.5q59 -16 98 -53.5t59.5 -100.5t28 -136t7.5 -179q0 -113 36.5 -148.5 t141.5 -35.5v-250h-39q-87 0 -159 17t-130 52t-90.5 94t-32.5 138q0 107 -1 154.5t-6 114.5t-16 93t-31.5 57.5t-52 42.5t-77.5 15z" />
<glyph unicode="|" horiz-adv-x="655" d="M195 -287v1913h266v-1913h-266z" />
<glyph unicode="}" horiz-adv-x="796" d="M82 -61q105 0 141.5 35.5t36.5 148.5q0 106 7.5 179t28 136t59.5 100.5t98 53.5q-59 16 -98 53.5t-59.5 100.5t-28 136t-7.5 179q0 113 -36.5 148.5t-141.5 35.5v250h39q86 0 158.5 -17t130 -52t90 -94t32.5 -138q0 -107 1 -157.5t7 -116t18 -92t35 -56.5t57 -41t85 -16 l-18 -248q-28 -2 -50 -7t-40 -16.5t-31 -21.5t-23.5 -33t-17 -38.5t-11 -51t-7 -58.5t-4 -73t-1.5 -82v-96q0 -79 -32.5 -138t-90 -94t-130 -52t-158.5 -17h-39v250z" />
<glyph unicode="~" horiz-adv-x="1122" d="M119 623q147 163 295 163q60 0 155.5 -45t147.5 -45q99 0 190 84l97 -159q-148 -164 -295 -164q-60 0 -155.5 45t-147.5 45q-100 0 -191 -84z" />
<glyph unicode="&#xa1;" horiz-adv-x="630" d="M139 934q0 172 180 172q88 0 134.5 -44t46.5 -128t-46.5 -127t-134.5 -43q-180 0 -180 170zM152 -362q27 811 38 1003h259l45 -971z" />
<glyph unicode="&#xa2;" horiz-adv-x="948" d="M86 541q0 237 77.5 370t248.5 174v224h235v-205q156 -6 268 -72l-96 -219q-98 49 -221 49q-66 0 -108.5 -20.5t-64.5 -65t-30 -98.5t-8 -137t8 -137t30 -99t64.5 -65.5t108.5 -20.5q123 0 221 49l96 -219q-112 -66 -268 -72v-204h-235v223q-171 41 -248.5 174t-77.5 371z " />
<glyph unicode="&#xa3;" horiz-adv-x="1210" d="M78 612v215h151q-22 132 -22 238q0 193 126.5 293t332.5 100q281 0 442 -121l-123 -225q-114 68 -268 68q-125 0 -176.5 -46.5t-51.5 -148.5q0 -69 13 -158h338v-215h-324q2 -18 2 -45q0 -178 -94 -291h690v-276h-926l-47 276q65 62 87 126.5t22 160.5v49h-172z" />
<glyph unicode="&#xa4;" horiz-adv-x="1341" d="M178 303l150 150q-45 88 -45 192q0 103 47 195l-150 149l148 148l153 -154q80 41 189 41q108 0 188 -41l154 154l149 -150l-147 -147q43 -84 43 -195q0 -106 -43 -194l147 -148l-149 -149l-154 153q-80 -41 -188 -41q-126 0 -195 35l-147 -147zM500 645q0 -190 170 -190 t170 190q0 191 -170 191t-170 -191z" />
<glyph unicode="&#xa5;" horiz-adv-x="1331" d="M27 1399l372 53l267 -649l278 631h361l-408 -754h178v-148h-258v-102h258v-147h-258v-283h-313v283h-258v147h258v102h-258v148h176z" />
<glyph unicode="&#xa6;" horiz-adv-x="655" d="M195 -287v846h266v-846h-266zM195 780v846h266v-846h-266z" />
<glyph unicode="&#xa7;" horiz-adv-x="1210" d="M72 590q0 202 157 301q-82 76 -82 207q0 75 25.5 135.5t69 102t103.5 69.5t127.5 40.5t143.5 12.5q271 0 437 -104l-88 -211q-151 82 -349 82q-174 0 -174 -111q0 -40 38.5 -70t100 -51t135.5 -42.5t148.5 -52.5t136 -72.5t100 -110.5t38.5 -158q0 -200 -160 -301 q82 -76 82 -207q0 -93 -38 -164t-104 -112.5t-148.5 -62.5t-178.5 -21q-270 0 -436 104l88 211q151 -82 348 -82q176 0 176 111q0 41 -38.5 71.5t-100 52t-135.5 43t-148 52t-135.5 71t-100 109.5t-38.5 158zM354 629q0 -42 28.5 -74.5t78.5 -53.5t101.5 -36t114 -33.5 t99.5 -36.5q35 16 57.5 49.5t22.5 77.5q0 42 -29 73.5t-79 52t-102 36t-114.5 34t-99.5 36.5q-35 -15 -56.5 -48.5t-21.5 -76.5z" />
<glyph unicode="&#xa8;" horiz-adv-x="978" d="M92 1356q0 147 164 147q162 0 162 -147q0 -144 -162 -144q-164 0 -164 144zM563 1356q0 147 162 147t162 -147q0 -144 -162 -144t-162 144z" />
<glyph unicode="&#xa9;" horiz-adv-x="1644" d="M94 717q0 361 185.5 551t541.5 190q357 0 543 -190t186 -551q0 -362 -186 -552t-543 -190q-354 0 -540.5 190.5t-186.5 551.5zM260 717q0 -304 138 -446t423 -142q286 0 424.5 142t138.5 446t-138.5 446t-424.5 142q-285 0 -423 -142t-138 -446zM463 717 q0 240 90.5 351.5t294.5 111.5q146 0 256 -72l-62 -147q-85 45 -196 45q-115 0 -155 -70t-40 -219t40 -219t155 -70q111 0 196 45l62 -147q-110 -72 -256 -72q-204 0 -294.5 111.5t-90.5 351.5z" />
<glyph unicode="&#xaa;" horiz-adv-x="765" d="M92 993q0 48 17.5 82t59.5 61t116.5 42.5t185.5 21.5q-3 63 -33.5 88t-85.5 25q-90 0 -174 -43l-51 129q102 59 252 59q126 0 200 -67.5t74 -180.5v-155q0 -136 17 -221l-144 -33q-19 46 -28 92q-58 -94 -185 -94q-221 0 -221 194zM113 594v137h561v-137h-561zM274 999 q0 -35 20.5 -50t63.5 -15q41 0 66.5 21t46.5 63v65q-109 -4 -153 -24t-44 -60z" />
<glyph unicode="&#xab;" horiz-adv-x="1388" d="M94 502v237l475 344l117 -254l-354 -208l354 -209l-117 -254zM705 502v237l475 344l116 -254l-354 -208l354 -209l-116 -254z" />
<glyph unicode="&#xac;" d="M195 477v285h1001v-580h-287v295h-714z" />
<glyph unicode="&#xad;" horiz-adv-x="899" d="M119 477v285h661v-285h-661z" />
<glyph unicode="&#xae;" horiz-adv-x="1644" d="M94 717q0 361 185.5 551t541.5 190q357 0 543 -190t186 -551q0 -362 -186 -552t-543 -190q-354 0 -540.5 190.5t-186.5 551.5zM260 717q0 -304 138 -446t423 -142q286 0 424.5 142t138.5 446t-138.5 446t-424.5 142q-285 0 -423 -142t-138 -446zM506 281v866 q148 37 291 37q83 0 149 -16t121 -51.5t85 -99.5t30 -153q0 -193 -158 -262l176 -280l-178 -66l-168 311h-164v-286h-184zM690 713h141q162 0 162 151q0 156 -186 156q-65 0 -117 -14v-293z" />
<glyph unicode="&#xaf;" horiz-adv-x="933" d="M82 1200v240h766v-240h-766z" />
<glyph unicode="&#xb0;" horiz-adv-x="782" d="M82 1204q0 140 77 215.5t224 75.5q148 0 224.5 -75t76.5 -216q0 -142 -76.5 -216.5t-224.5 -74.5q-147 0 -224 75t-77 216zM254 1204q0 -141 129 -141t129 141q0 70 -32.5 107t-96.5 37t-96.5 -37t-32.5 -107z" />
<glyph unicode="&#xb1;" d="M195 0v262h1001v-262h-1001zM195 707v262h360v307h281v-307h360v-262h-360v-308h-281v308h-360z" />
<glyph unicode="&#xb2;" horiz-adv-x="768" d="M86 1372q109 76 305 76q123 0 195.5 -61t72.5 -177q0 -119 -76 -214.5t-235 -200.5h309v-170h-526l-33 170q75 50 131 93t110 93t83 97.5t29 88.5q0 58 -25.5 84.5t-81.5 26.5q-100 0 -197 -51z" />
<glyph unicode="&#xb3;" horiz-adv-x="780" d="M86 692l64 146q109 -58 227 -58q123 0 123 107q0 94 -131 94q-50 0 -109 -10l-37 145l215 148h-317v170h512l35 -170l-248 -166q141 0 206.5 -64.5t65.5 -167.5q0 -124 -78.5 -190t-228.5 -66q-175 0 -299 82z" />
<glyph unicode="&#xb4;" horiz-adv-x="563" d="M57 1212l136 357l313 -19l-234 -358z" />
<glyph unicode="&#xb5;" horiz-adv-x="1193" d="M113 -315v1362l299 34v-596q0 -142 33.5 -204t119.5 -62q76 0 119.5 30t81.5 97v701l299 34v-667q0 -247 29 -379l-234 -58q-35 89 -51 160q-36 -72 -116 -117t-165 -45t-129 29q13 -71 13 -168v-151h-299z" />
<glyph unicode="&#xb6;" horiz-adv-x="1218" d="M57 1010q0 98 35.5 178.5t106 141.5t183.5 94.5t259 33.5q220 0 434 -51v-1407h-246v1219q-42 12 -116 12v-1231h-246v588q-129 0 -224 59.5t-140.5 154t-45.5 208.5z" />
<glyph unicode="&#xb7;" horiz-adv-x="595" d="M117 690q0 89 46.5 135.5t135.5 46.5q180 0 180 -182t-180 -182q-89 0 -135.5 46.5t-46.5 135.5z" />
<glyph unicode="&#xb8;" horiz-adv-x="569" d="M82 -373l39 142q61 -23 110 -23q68 0 68 41q0 27 -27.5 45t-103.5 23l35 145h182l-14 -72q116 -22 116 -159q0 -87 -64.5 -129.5t-160.5 -42.5q-104 0 -180 30z" />
<glyph unicode="&#xb9;" horiz-adv-x="471" d="M139 625v784l191 25v-809h-191z" />
<glyph unicode="&#xba;" horiz-adv-x="784" d="M92 1128q0 171 70.5 250.5t228.5 79.5t229.5 -80t71.5 -250t-71.5 -249.5t-229.5 -79.5t-228.5 79t-70.5 250zM113 594v137h561v-137h-561zM274 1128q0 -95 24.5 -139.5t94.5 -44.5t93.5 44.5t23.5 139.5q0 96 -23.5 140.5t-93.5 44.5t-94.5 -45t-24.5 -140z" />
<glyph unicode="&#xbb;" horiz-adv-x="1388" d="M94 412l355 209l-355 208l115 254l477 -344v-237l-477 -344zM702 412l355 209l-355 208l115 254l477 -344v-237l-477 -344z" />
<glyph unicode="&#xbc;" horiz-adv-x="1525" d="M139 625v784l191 25v-809h-191zM236 27l606 1429l141 -53l-606 -1430zM788 334q104 178 107 483l203 -16q-22 -281 -123 -467h190v258l191 22v-280h84v-152h-84v-182h-191v182h-331z" />
<glyph unicode="&#xbd;" horiz-adv-x="1529" d="M139 625v784l191 25v-809h-191zM236 27l606 1429l141 -53l-606 -1430zM848 748q108 75 305 75q123 0 195.5 -60.5t72.5 -176.5q0 -119 -76 -215.5t-235 -200.5h309v-170h-526l-33 170q74 50 130.5 93.5t110 93.5t82.5 97.5t29 88.5q0 58 -25 84t-81 26q-100 0 -197 -51z " />
<glyph unicode="&#xbe;" horiz-adv-x="1800" d="M86 692l64 146q109 -58 227 -58q123 0 123 107q0 94 -131 94q-50 0 -109 -10l-37 145l215 148h-317v170h512l35 -170l-248 -166q141 0 206.5 -64.5t65.5 -167.5q0 -124 -78.5 -190t-228.5 -66q-175 0 -299 82zM512 27l606 1429l142 -53l-607 -1430zM1063 334 q103 176 106 483l203 -16q-22 -281 -123 -467h191v258l190 22v-280h84v-152h-84v-182h-190v182h-332z" />
<glyph unicode="&#xbf;" horiz-adv-x="882" d="M70 82q0 150 76.5 241.5t246.5 118.5l10 199h256l21 -354q-154 -20 -218.5 -64t-64.5 -143q0 -49 18.5 -84t51.5 -57t87.5 -35t117.5 -18t151 -5l-30 -243q-52 -9 -107 -9q-153 0 -272 35t-193.5 96.5t-112.5 143t-38 178.5zM352 934q0 172 180 172q88 0 134.5 -44 t46.5 -128t-46.5 -127t-134.5 -43q-180 0 -180 170z" />
<glyph unicode="&#xc0;" horiz-adv-x="1325" d="M27 0l471 1415l321 37l479 -1434l-340 -36l-79 286h-449l-72 -268h-331zM362 1892l314 19l135 -357l-217 -20zM494 502h319l-162 579z" />
<glyph unicode="&#xc1;" horiz-adv-x="1325" d="M27 0l471 1415l321 37l479 -1434l-340 -36l-79 286h-449l-72 -268h-331zM494 502h319l-162 579zM512 1554l135 357l314 -19l-234 -358z" />
<glyph unicode="&#xc2;" horiz-adv-x="1325" d="M27 0l471 1415l321 37l479 -1434l-340 -36l-79 286h-449l-72 -268h-331zM256 1657l291 250h211l291 -250l-136 -129l-260 166l-262 -166zM494 502h319l-162 579z" />
<glyph unicode="&#xc3;" horiz-adv-x="1325" d="M27 0l471 1415l321 37l479 -1434l-340 -36l-79 286h-449l-72 -268h-331zM209 1700q148 164 295 164q60 0 155.5 -45t147.5 -45q99 0 190 84l97 -160q-148 -164 -295 -164q-60 0 -155.5 45t-147.5 45q-100 0 -191 -84zM494 502h319l-162 579z" />
<glyph unicode="&#xc4;" horiz-adv-x="1325" d="M27 0l471 1415l321 37l479 -1434l-340 -36l-79 286h-449l-72 -268h-331zM254 1679q0 148 164 148q162 0 162 -148q0 -143 -162 -143q-164 0 -164 143zM494 502h319l-162 579zM725 1679q0 148 162 148t162 -148q0 -143 -162 -143t-162 143z" />
<glyph unicode="&#xc5;" horiz-adv-x="1325" d="M27 0l444 1337q-109 62 -109 213q0 121 73.5 185.5t215.5 64.5t215.5 -64.5t73.5 -185.5q0 -132 -88 -198l446 -1334l-340 -36l-79 286h-449l-72 -268h-331zM494 502h319l-162 579zM547 1550q0 -116 104 -116q105 0 105 116q0 117 -105 117q-104 0 -104 -117z" />
<glyph unicode="&#xc6;" horiz-adv-x="1961" d="M20 0l793 1434h1057v-277h-615v-280h498l-22 -248h-476v-353h615v-276h-928v268h-420l-137 -268h-365zM631 502h311v600z" />
<glyph unicode="&#xc7;" horiz-adv-x="1193" d="M96 717q0 384 144.5 562.5t472.5 178.5q120 0 218.5 -22t198.5 -82l-106 -244q-141 72 -307 72q-76 0 -130.5 -21t-88 -58t-53 -97.5t-26.5 -127.5t-7 -161t7 -161t26.5 -127.5t53 -97.5t88 -58t130.5 -21q166 0 307 72l106 -244q-93 -56 -186 -79t-203 -26l-8 -47 q117 -22 117 -159q0 -87 -64.5 -129.5t-160.5 -42.5q-105 0 -181 30l39 142q61 -23 111 -23q68 0 68 41q0 27 -28 45t-104 23l31 133q-245 36 -355 213.5t-110 515.5z" />
<glyph unicode="&#xc8;" horiz-adv-x="1142" d="M123 0v1434h928v-277h-615v-280h498l-23 -248h-475v-353h615v-276h-928zM287 1892l313 19l135 -357l-217 -20z" />
<glyph unicode="&#xc9;" horiz-adv-x="1142" d="M123 0v1434h928v-277h-615v-280h498l-23 -248h-475v-353h615v-276h-928zM418 1554l135 357l313 -19l-233 -358z" />
<glyph unicode="&#xca;" horiz-adv-x="1142" d="M123 0v1434h928v-277h-615v-280h498l-23 -248h-475v-353h615v-276h-928zM186 1657l291 250h211l291 -250l-135 -129l-260 166l-262 -166z" />
<glyph unicode="&#xcb;" horiz-adv-x="1142" d="M123 0v1434h928v-277h-615v-280h498l-23 -248h-475v-353h615v-276h-928zM193 1681q0 148 163 148q162 0 162 -148q0 -143 -162 -143q-163 0 -163 143zM664 1681q0 148 161 148q162 0 162 -148q0 -143 -162 -143q-161 0 -161 143z" />
<glyph unicode="&#xcc;" horiz-adv-x="559" d="M-33 1892l314 19l135 -357l-217 -20zM123 0v1434h313v-1434h-313z" />
<glyph unicode="&#xcd;" horiz-adv-x="559" d="M119 1554l135 357l313 -19l-233 -358zM123 0v1434h313v-1434h-313z" />
<glyph unicode="&#xce;" horiz-adv-x="559" d="M-115 1657l291 250h211l291 -250l-135 -129l-260 166l-263 -166zM123 0v1434h313v-1434h-313z" />
<glyph unicode="&#xcf;" horiz-adv-x="559" d="M-119 1681q0 148 164 148q162 0 162 -148q0 -143 -162 -143q-164 0 -164 143zM123 0v1434h313v-1434h-313zM352 1681q0 148 162 148t162 -148q0 -143 -162 -143t-162 143z" />
<glyph unicode="&#xd0;" horiz-adv-x="1472" d="M68 578v276h135v545q297 59 510 59q119 0 214.5 -20t181.5 -71.5t143 -133.5t90.5 -212.5t33.5 -303.5q0 -264 -68 -421.5t-205.5 -226.5t-363.5 -69h-536v578h-135zM516 274q78 0 118.5 0.5t99.5 3.5t87 9t68.5 17t58 27t42.5 41t34 56.5t20 74.5t14 95t3 119 q0 139 -21 232.5t-64.5 144t-98.5 70.5t-134 20q-66 0 -227 -23v-307h203v-276h-203v-304z" />
<glyph unicode="&#xd1;" horiz-adv-x="1421" d="M123 0v1397l360 55l314 -580q186 -347 239 -462q-37 255 -37 649v375h299v-1434h-346l-354 647q-10 18 -50.5 90t-57 103.5t-43.5 88t-46 105.5q21 -211 21 -610v-424h-299zM285 1702q148 164 295 164q60 0 155.5 -45t147.5 -45q99 0 190 84l96 -160q-148 -164 -295 -164 q-60 0 -155.5 45t-147.5 45q-99 0 -190 -84z" />
<glyph unicode="&#xd2;" horiz-adv-x="1425" d="M96 717q0 384 144.5 562.5t472.5 178.5q327 0 471.5 -178t144.5 -563t-144.5 -563.5t-471.5 -178.5t-472 179t-145 563zM391 1892l314 19l135 -357l-217 -20zM412 717q0 -94 7 -161t26.5 -128t53 -98t88 -58.5t130.5 -21.5q74 0 127 21.5t85.5 58.5t51.5 97.5t26 128 t7 161.5t-7 161.5t-26 128t-51.5 97.5t-85.5 58.5t-127 21.5q-76 0 -130.5 -21.5t-88 -58.5t-53 -98t-26.5 -128t-7 -161z" />
<glyph unicode="&#xd3;" horiz-adv-x="1425" d="M96 717q0 384 144.5 562.5t472.5 178.5q327 0 471.5 -178t144.5 -563t-144.5 -563.5t-471.5 -178.5t-472 179t-145 563zM412 717q0 -94 7 -161t26.5 -128t53 -98t88 -58.5t130.5 -21.5q74 0 127 21.5t85.5 58.5t51.5 97.5t26 128t7 161.5t-7 161.5t-26 128t-51.5 97.5 t-85.5 58.5t-127 21.5q-76 0 -130.5 -21.5t-88 -58.5t-53 -98t-26.5 -128t-7 -161zM561 1554l135 357l314 -19l-234 -358z" />
<glyph unicode="&#xd4;" horiz-adv-x="1425" d="M96 717q0 384 144.5 562.5t472.5 178.5q327 0 471.5 -178t144.5 -563t-144.5 -563.5t-471.5 -178.5t-472 179t-145 563zM315 1657l291 250h211l291 -250l-135 -129l-260 166l-262 -166zM412 717q0 -94 7 -161t26.5 -128t53 -98t88 -58.5t130.5 -21.5q74 0 127 21.5 t85.5 58.5t51.5 97.5t26 128t7 161.5t-7 161.5t-26 128t-51.5 97.5t-85.5 58.5t-127 21.5q-76 0 -130.5 -21.5t-88 -58.5t-53 -98t-26.5 -128t-7 -161z" />
<glyph unicode="&#xd5;" horiz-adv-x="1425" d="M96 717q0 384 144.5 562.5t472.5 178.5q327 0 471.5 -178t144.5 -563t-144.5 -563.5t-471.5 -178.5t-472 179t-145 563zM270 1700q148 164 295 164q60 0 155.5 -45t147.5 -45q100 0 191 84l96 -160q-148 -164 -295 -164q-60 0 -155.5 45t-147.5 45q-99 0 -190 -84z M412 717q0 -94 7 -161t26.5 -128t53 -98t88 -58.5t130.5 -21.5q74 0 127 21.5t85.5 58.5t51.5 97.5t26 128t7 161.5t-7 161.5t-26 128t-51.5 97.5t-85.5 58.5t-127 21.5q-76 0 -130.5 -21.5t-88 -58.5t-53 -98t-26.5 -128t-7 -161z" />
<glyph unicode="&#xd6;" horiz-adv-x="1425" d="M96 717q0 384 144.5 562.5t472.5 178.5q327 0 471.5 -178t144.5 -563t-144.5 -563.5t-471.5 -178.5t-472 179t-145 563zM313 1681q0 148 164 148q162 0 162 -148q0 -143 -162 -143q-164 0 -164 143zM412 717q0 -94 7 -161t26.5 -128t53 -98t88 -58.5t130.5 -21.5 q74 0 127 21.5t85.5 58.5t51.5 97.5t26 128t7 161.5t-7 161.5t-26 128t-51.5 97.5t-85.5 58.5t-127 21.5q-76 0 -130.5 -21.5t-88 -58.5t-53 -98t-26.5 -128t-7 -161zM784 1681q0 148 162 148t162 -148q0 -143 -162 -143t-162 143z" />
<glyph unicode="&#xd7;" d="M180 305l314 313l-314 314l203 203l313 -314l314 314l202 -203l-313 -314l313 -313l-202 -203l-314 314l-313 -314z" />
<glyph unicode="&#xd8;" horiz-adv-x="1425" d="M96 717q0 384 144.5 562.5t472.5 178.5q93 0 178 -16l65 145h326l-125 -278q172 -175 172 -592q0 -385 -144.5 -563.5t-471.5 -178.5q-63 0 -142 11l-69 -160h-324l119 270q-104 88 -152.5 240.5t-48.5 380.5zM412 717q0 -94 7 -161t26.5 -128t53 -98t88 -58.5 t130.5 -21.5q74 0 127 21.5t85.5 58.5t51.5 97.5t26 128t7 161.5t-7 161.5t-26 128t-51.5 97.5t-85.5 58.5t-127 21.5q-76 0 -130.5 -21.5t-88 -58.5t-53 -98t-26.5 -128t-7 -161z" />
<glyph unicode="&#xd9;" horiz-adv-x="1417" d="M115 717v717h313v-717q0 -242 62.5 -354.5t224.5 -112.5q67 0 115.5 19.5t79.5 55.5t49.5 95.5t26 129.5t7.5 167v717h310v-717q0 -384 -139 -563t-453 -179q-318 0 -457 178.5t-139 563.5zM408 1892l313 19l135 -357l-217 -20z" />
<glyph unicode="&#xda;" horiz-adv-x="1417" d="M115 717v717h313v-717q0 -242 62.5 -354.5t224.5 -112.5q67 0 115.5 19.5t79.5 55.5t49.5 95.5t26 129.5t7.5 167v717h310v-717q0 -384 -139 -563t-453 -179q-318 0 -457 178.5t-139 563.5zM582 1554l135 357l313 -19l-233 -358z" />
<glyph unicode="&#xdb;" horiz-adv-x="1417" d="M115 717v717h313v-717q0 -242 62.5 -354.5t224.5 -112.5q67 0 115.5 19.5t79.5 55.5t49.5 95.5t26 129.5t7.5 167v717h310v-717q0 -384 -139 -563t-453 -179q-318 0 -457 178.5t-139 563.5zM315 1649l291 249h211l291 -249l-135 -129l-260 166l-262 -166z" />
<glyph unicode="&#xdc;" horiz-adv-x="1417" d="M115 717v717h313v-717q0 -242 62.5 -354.5t224.5 -112.5q67 0 115.5 19.5t79.5 55.5t49.5 95.5t26 129.5t7.5 167v717h310v-717q0 -384 -139 -563t-453 -179q-318 0 -457 178.5t-139 563.5zM313 1681q0 148 164 148q162 0 162 -148q0 -143 -162 -143q-164 0 -164 143z M784 1681q0 148 162 148t162 -148q0 -143 -162 -143t-162 143z" />
<glyph unicode="&#xdd;" horiz-adv-x="1331" d="M27 1399l372 53l267 -649l278 631h361l-488 -910v-524h-313v524zM541 1554l135 357l313 -19l-233 -358z" />
<glyph unicode="&#xde;" horiz-adv-x="1243" d="M123 0v1434h313v-232q128 27 230 27q90 0 169 -17.5t148.5 -57t119.5 -98t78.5 -145t28.5 -194.5q0 -128 -42.5 -223.5t-121 -153.5t-183 -86.5t-234.5 -28.5q-86 0 -193 13v-238h-313zM436 479q95 -10 162 -10q141 0 219 53.5t78 186.5q0 136 -72.5 192.5t-197.5 56.5 q-76 0 -189 -26v-453z" />
<glyph unicode="&#xdf;" horiz-adv-x="1329" d="M123 0v918q0 293 120 429t392 136q134 0 233 -33.5t154.5 -92t81.5 -126.5t26 -148q0 -144 -54 -227t-181 -113q197 -13 287 -103.5t90 -260.5q0 -197 -112 -300.5t-314 -103.5q-203 0 -334 72l68 227q95 -45 180 -45q106 0 156.5 40t50.5 139q0 58 -22.5 98t-65 60.5 t-91.5 29t-114 8.5h-51v230q123 9 172 48t49 144q0 110 -48 162.5t-161 52.5q-65 0 -108 -21t-65.5 -66t-31 -100t-8.5 -136v-918h-299z" />
<glyph unicode="&#xe0;" horiz-adv-x="1148" d="M86 309q0 66 17.5 115t60.5 91.5t117 71t186 48.5t268 29q-6 110 -57 152t-148 42q-151 0 -299 -74l-90 220q178 102 437 102q212 0 334 -115.5t122 -310.5v-266q0 -247 29 -379l-234 -58q-35 89 -51 160q-47 -79 -122 -120.5t-191 -41.5q-379 0 -379 334zM287 1550 l313 19l135 -357l-217 -20zM385 319q0 -61 34.5 -86.5t121.5 -25.5q72 0 116.5 35.5t77.5 107.5v117q-190 -10 -270 -45.5t-80 -102.5z" />
<glyph unicode="&#xe1;" horiz-adv-x="1148" d="M86 309q0 66 17.5 115t60.5 91.5t117 71t186 48.5t268 29q-6 110 -57 152t-148 42q-151 0 -299 -74l-90 220q178 102 437 102q212 0 334 -115.5t122 -310.5v-266q0 -247 29 -379l-234 -58q-35 89 -51 160q-47 -79 -122 -120.5t-191 -41.5q-379 0 -379 334zM385 319 q0 -61 34.5 -86.5t121.5 -25.5q72 0 116.5 35.5t77.5 107.5v117q-190 -10 -270 -45.5t-80 -102.5zM432 1212l135 357l314 -19l-234 -358z" />
<glyph unicode="&#xe2;" horiz-adv-x="1148" d="M86 309q0 66 17.5 115t60.5 91.5t117 71t186 48.5t268 29q-6 110 -57 152t-148 42q-151 0 -299 -74l-90 220q178 102 437 102q212 0 334 -115.5t122 -310.5v-266q0 -247 29 -379l-234 -58q-35 89 -51 160q-47 -79 -122 -120.5t-191 -41.5q-379 0 -379 334zM184 1315 l291 250h211l291 -250l-135 -129l-260 166l-263 -166zM385 319q0 -61 34.5 -86.5t121.5 -25.5q72 0 116.5 35.5t77.5 107.5v117q-190 -10 -270 -45.5t-80 -102.5z" />
<glyph unicode="&#xe3;" horiz-adv-x="1148" d="M86 309q0 66 17.5 115t60.5 91.5t117 71t186 48.5t268 29q-6 110 -57 152t-148 42q-151 0 -299 -74l-90 220q178 102 437 102q212 0 334 -115.5t122 -310.5v-266q0 -247 29 -379l-234 -58q-35 89 -51 160q-47 -79 -122 -120.5t-191 -41.5q-379 0 -379 334zM131 1358 q148 164 295 164q60 0 155.5 -45t147.5 -45q100 0 191 84l96 -160q-148 -164 -295 -164q-60 0 -155.5 45t-147.5 45q-100 0 -191 -84zM385 319q0 -61 34.5 -86.5t121.5 -25.5q72 0 116.5 35.5t77.5 107.5v117q-190 -10 -270 -45.5t-80 -102.5z" />
<glyph unicode="&#xe4;" horiz-adv-x="1148" d="M86 309q0 66 17.5 115t60.5 91.5t117 71t186 48.5t268 29q-6 110 -57 152t-148 42q-151 0 -299 -74l-90 220q178 102 437 102q212 0 334 -115.5t122 -310.5v-266q0 -247 29 -379l-234 -58q-35 89 -51 160q-47 -79 -122 -120.5t-191 -41.5q-379 0 -379 334zM182 1356 q0 147 164 147q162 0 162 -147q0 -144 -162 -144q-164 0 -164 144zM385 319q0 -61 34.5 -86.5t121.5 -25.5q72 0 116.5 35.5t77.5 107.5v117q-190 -10 -270 -45.5t-80 -102.5zM653 1356q0 147 162 147t162 -147q0 -144 -162 -144t-162 144z" />
<glyph unicode="&#xe5;" horiz-adv-x="1148" d="M86 309q0 66 17.5 115t60.5 91.5t117 71t186 48.5t268 29q-6 110 -57 152t-148 42q-151 0 -299 -74l-90 220q178 102 437 102q212 0 334 -115.5t122 -310.5v-266q0 -247 29 -379l-234 -58q-35 89 -51 160q-47 -79 -122 -120.5t-191 -41.5q-379 0 -379 334zM289 1438 q0 121 73.5 185.5t215.5 64.5q141 0 214.5 -64.5t73.5 -185.5q0 -122 -73 -186t-215 -64t-215.5 64t-73.5 186zM385 319q0 -61 34.5 -86.5t121.5 -25.5q72 0 116.5 35.5t77.5 107.5v117q-190 -10 -270 -45.5t-80 -102.5zM473 1438q0 -117 105 -117q104 0 104 117 q0 116 -104 116q-105 0 -105 -116z" />
<glyph unicode="&#xe6;" horiz-adv-x="1765" d="M86 309q0 66 17.5 115t60.5 91.5t117 71t186 48.5t268 29q-6 110 -57 152t-148 42q-151 0 -299 -74l-90 220q178 102 437 102q104 0 186 -44t123 -132q38 87 131 131.5t205 44.5q93 0 161 -15.5t128 -57.5t97 -113t58 -184t21 -269l-644 -68q13 -97 61.5 -139.5 t143.5 -42.5q175 0 318 84l90 -207q-174 -119 -404 -119q-319 0 -438 193q-56 -94 -137 -143.5t-213 -49.5q-379 0 -379 334zM385 319q0 -61 34.5 -86.5t121.5 -25.5q72 0 116.5 35.5t77.5 107.5v117q-190 -10 -270 -45.5t-80 -102.5zM1032 588l365 57q-3 117 -46 169 t-128 52q-191 0 -191 -248v-30z" />
<glyph unicode="&#xe7;" horiz-adv-x="948" d="M86 541q0 293 120 429t392 136q193 0 317 -74l-96 -219q-98 49 -221 49q-66 0 -108.5 -20.5t-64.5 -65t-30 -98.5t-8 -137t8 -137t30 -99t64.5 -65.5t108.5 -20.5q123 0 221 49l96 -219q-116 -68 -282 -74l-8 -47q116 -21 116 -159q0 -87 -62 -129.5t-163 -42.5 q-104 0 -180 30l39 142q61 -23 110 -23q68 0 68 41q0 27 -27.5 45t-103.5 23l31 133q-192 32 -279.5 167t-87.5 386z" />
<glyph unicode="&#xe8;" horiz-adv-x="1116" d="M86 537q0 160 34 272.5t100 176.5t152 92t201 28q93 0 161 -15.5t128 -57.5t97 -113t58 -184t21 -269l-643 -68q13 -97 61.5 -139.5t143.5 -42.5q175 0 318 84l90 -207q-174 -119 -404 -119q-128 0 -221 29t-161 93.5t-102 174t-34 265.5zM233 1550l314 19l135 -357 l-217 -20zM383 588l365 57q-3 117 -46 169t-129 52q-190 0 -190 -248v-30z" />
<glyph unicode="&#xe9;" horiz-adv-x="1116" d="M86 537q0 160 34 272.5t100 176.5t152 92t201 28q93 0 161 -15.5t128 -57.5t97 -113t58 -184t21 -269l-643 -68q13 -97 61.5 -139.5t143.5 -42.5q175 0 318 84l90 -207q-174 -119 -404 -119q-128 0 -221 29t-161 93.5t-102 174t-34 265.5zM383 588l365 57q-3 117 -46 169 t-129 52q-190 0 -190 -248v-30zM389 1212l135 357l314 -19l-234 -358z" />
<glyph unicode="&#xea;" horiz-adv-x="1116" d="M86 537q0 160 34 272.5t100 176.5t152 92t201 28q93 0 161 -15.5t128 -57.5t97 -113t58 -184t21 -269l-643 -68q13 -97 61.5 -139.5t143.5 -42.5q175 0 318 84l90 -207q-174 -119 -404 -119q-128 0 -221 29t-161 93.5t-102 174t-34 265.5zM178 1315l291 250h211l291 -250 l-135 -129l-261 166l-262 -166zM383 588l365 57q-3 117 -46 169t-129 52q-190 0 -190 -248v-30z" />
<glyph unicode="&#xeb;" horiz-adv-x="1116" d="M86 537q0 160 34 272.5t100 176.5t152 92t201 28q93 0 161 -15.5t128 -57.5t97 -113t58 -184t21 -269l-643 -68q13 -97 61.5 -139.5t143.5 -42.5q175 0 318 84l90 -207q-174 -119 -404 -119q-128 0 -221 29t-161 93.5t-102 174t-34 265.5zM174 1356q0 147 164 147 q162 0 162 -147q0 -144 -162 -144q-164 0 -164 144zM383 588l365 57q-3 117 -46 169t-129 52q-190 0 -190 -248v-30zM645 1356q0 147 162 147t162 -147q0 -144 -162 -144t-162 144z" />
<glyph unicode="&#xec;" horiz-adv-x="565" d="M-20 1550l313 19l135 -357l-217 -20zM133 371v676l299 34v-731q0 -246 27 -350h-281q-45 115 -45 371z" />
<glyph unicode="&#xed;" horiz-adv-x="565" d="M133 371v676l299 34v-731q0 -246 27 -350h-281q-45 115 -45 371zM139 1212l135 357l314 -19l-234 -358z" />
<glyph unicode="&#xee;" horiz-adv-x="565" d="M-113 1315l291 250h211l291 -250l-135 -129l-260 166l-262 -166zM133 371v676l299 34v-731q0 -246 27 -350h-281q-45 115 -45 371z" />
<glyph unicode="&#xef;" horiz-adv-x="565" d="M-115 1356q0 147 164 147q162 0 162 -147q0 -144 -162 -144q-164 0 -164 144zM133 371v676l299 34v-731q0 -246 27 -350h-281q-45 115 -45 371zM356 1356q0 147 162 147t162 -147q0 -144 -162 -144t-162 144z" />
<glyph unicode="&#xf0;" horiz-adv-x="1193" d="M86 520q0 529 453 529q93 0 161 -23.5t111 -89.5q-11 50 -31 91.5t-43.5 71.5t-59 55t-67.5 40.5t-79 30t-82.5 23t-88.5 18.5l68 229q204 -33 344 -117l107 101l163 -148l-104 -100q91 -111 130.5 -263t39.5 -376v-51q0 -292 -120.5 -429t-391.5 -137q-274 0 -392 136 t-118 409zM385 520q0 -78 8 -129t30 -93.5t64.5 -62.5t108.5 -20t108.5 20t64.5 62.5t30 93.5t8 129t-8 129t-30 93.5t-64.5 62.5t-108.5 20t-108.5 -20t-64.5 -62.5t-30 -93.5t-8 -129z" />
<glyph unicode="&#xf1;" horiz-adv-x="1183" d="M90 1047l234 57q35 -89 51 -160q47 79 122 120.5t193 41.5q73 0 131.5 -15t98 -39t68 -61.5t44.5 -75.5t25 -89t11.5 -93t2.5 -96v-637h-299v596q0 142 -34 204t-120 62q-76 0 -119 -30t-81 -97v-735h-299v668q0 247 -29 379zM135 1358q148 164 295 164q60 0 155.5 -45 t147.5 -45q100 0 191 84l96 -160q-148 -164 -295 -164q-60 0 -155.5 45t-147.5 45q-100 0 -191 -84z" />
<glyph unicode="&#xf2;" horiz-adv-x="1196" d="M86 541q0 293 120 429t392 136t392 -136t120 -429t-120 -429.5t-392 -136.5t-392 136.5t-120 429.5zM285 1550l313 19l135 -357l-217 -20zM387 541q0 -83 8 -138t30 -100t64.5 -66.5t108.5 -21.5t108.5 21.5t64.5 66.5t30 100t8 138q0 66 -4.5 112.5t-18 89t-36.5 68 t-61 40.5t-91 15t-91 -15t-61 -40.5t-36.5 -68t-18 -89t-4.5 -112.5z" />
<glyph unicode="&#xf3;" horiz-adv-x="1196" d="M86 541q0 293 120 429t392 136t392 -136t120 -429t-120 -429.5t-392 -136.5t-392 136.5t-120 429.5zM387 541q0 -83 8 -138t30 -100t64.5 -66.5t108.5 -21.5t108.5 21.5t64.5 66.5t30 100t8 138q0 66 -4.5 112.5t-18 89t-36.5 68t-61 40.5t-91 15t-91 -15t-61 -40.5 t-36.5 -68t-18 -89t-4.5 -112.5zM459 1212l135 357l313 -19l-233 -358z" />
<glyph unicode="&#xf4;" horiz-adv-x="1196" d="M86 541q0 293 120 429t392 136t392 -136t120 -429t-120 -429.5t-392 -136.5t-392 136.5t-120 429.5zM203 1315l291 250h211l290 -250l-135 -129l-260 166l-262 -166zM387 541q0 -83 8 -138t30 -100t64.5 -66.5t108.5 -21.5t108.5 21.5t64.5 66.5t30 100t8 138 q0 66 -4.5 112.5t-18 89t-36.5 68t-61 40.5t-91 15t-91 -15t-61 -40.5t-36.5 -68t-18 -89t-4.5 -112.5z" />
<glyph unicode="&#xf5;" horiz-adv-x="1196" d="M86 541q0 293 120 429t392 136t392 -136t120 -429t-120 -429.5t-392 -136.5t-392 136.5t-120 429.5zM156 1358q148 164 295 164q60 0 155.5 -45t147.5 -45q99 0 190 84l96 -160q-148 -164 -295 -164q-60 0 -155.5 45t-147.5 45q-99 0 -190 -84zM387 541q0 -83 8 -138 t30 -100t64.5 -66.5t108.5 -21.5t108.5 21.5t64.5 66.5t30 100t8 138q0 66 -4.5 112.5t-18 89t-36.5 68t-61 40.5t-91 15t-91 -15t-61 -40.5t-36.5 -68t-18 -89t-4.5 -112.5z" />
<glyph unicode="&#xf6;" horiz-adv-x="1196" d="M86 541q0 293 120 429t392 136t392 -136t120 -429t-120 -429.5t-392 -136.5t-392 136.5t-120 429.5zM201 1356q0 147 164 147q161 0 161 -147q0 -144 -161 -144q-164 0 -164 144zM387 541q0 -83 8 -138t30 -100t64.5 -66.5t108.5 -21.5t108.5 21.5t64.5 66.5t30 100 t8 138q0 66 -4.5 112.5t-18 89t-36.5 68t-61 40.5t-91 15t-91 -15t-61 -40.5t-36.5 -68t-18 -89t-4.5 -112.5zM672 1356q0 147 162 147q161 0 161 -147q0 -144 -161 -144q-162 0 -162 144z" />
<glyph unicode="&#xf7;" d="M195 494v254h1001v-254h-1001zM520 219q0 84 45.5 128t128.5 44q84 0 130 -44t46 -128t-46 -128t-130 -44q-83 0 -128.5 44t-45.5 128zM520 1022q0 84 45.5 128t128.5 44q84 0 130 -44t46 -128t-46 -128t-130 -44q-83 0 -128.5 44t-45.5 128z" />
<glyph unicode="&#xf8;" horiz-adv-x="1196" d="M86 541q0 293 120 429t392 136q45 0 123 -8l59 114h293l-108 -219q145 -133 145 -452q0 -293 -120 -429.5t-392 -136.5q-68 0 -127 9l-57 -121h-293l108 223q-143 132 -143 455zM387 541q0 -83 8 -138t30 -100t64.5 -66.5t108.5 -21.5t108.5 21.5t64.5 66.5t30 100t8 138 q0 66 -4.5 112.5t-18 89t-36.5 68t-61 40.5t-91 15t-91 -15t-61 -40.5t-36.5 -68t-18 -89t-4.5 -112.5z" />
<glyph unicode="&#xf9;" horiz-adv-x="1183" d="M113 444v603l299 34v-596q0 -142 33.5 -204t119.5 -62q76 0 119.5 30t81.5 97v701l299 34v-667q0 -247 29 -379l-234 -58q-35 89 -51 160q-47 -79 -122 -120.5t-193 -41.5q-73 0 -131.5 15t-98 39t-68 61.5t-44.5 75.5t-25 89t-11.5 93t-2.5 96zM297 1550l313 19 l135 -357l-217 -20z" />
<glyph unicode="&#xfa;" horiz-adv-x="1183" d="M113 444v603l299 34v-596q0 -142 33.5 -204t119.5 -62q76 0 119.5 30t81.5 97v701l299 34v-667q0 -247 29 -379l-234 -58q-35 89 -51 160q-47 -79 -122 -120.5t-193 -41.5q-73 0 -131.5 15t-98 39t-68 61.5t-44.5 75.5t-25 89t-11.5 93t-2.5 96zM449 1212l135 357 l313 -19l-233 -358z" />
<glyph unicode="&#xfb;" horiz-adv-x="1183" d="M113 444v603l299 34v-596q0 -142 33.5 -204t119.5 -62q76 0 119.5 30t81.5 97v701l299 34v-667q0 -247 29 -379l-234 -58q-35 89 -51 160q-47 -79 -122 -120.5t-193 -41.5q-73 0 -131.5 15t-98 39t-68 61.5t-44.5 75.5t-25 89t-11.5 93t-2.5 96zM199 1315l290 250h211 l291 -250l-135 -129l-260 166l-262 -166z" />
<glyph unicode="&#xfc;" horiz-adv-x="1183" d="M113 444v603l299 34v-596q0 -142 33.5 -204t119.5 -62q76 0 119.5 30t81.5 97v701l299 34v-667q0 -247 29 -379l-234 -58q-35 89 -51 160q-47 -79 -122 -120.5t-193 -41.5q-73 0 -131.5 15t-98 39t-68 61.5t-44.5 75.5t-25 89t-11.5 93t-2.5 96zM199 1356q0 147 163 147 q162 0 162 -147q0 -144 -162 -144q-163 0 -163 144zM670 1356q0 147 161 147q162 0 162 -147q0 -144 -162 -144q-161 0 -161 144z" />
<glyph unicode="&#xfd;" horiz-adv-x="1089" d="M20 1053l324 45l213 -848l217 848l295 -29l-305 -917q-29 -88 -69.5 -161.5t-99.5 -141t-143 -119t-188 -82.5l-121 194q172 65 228 185zM414 1212l135 357l313 -19l-233 -358z" />
<glyph unicode="&#xfe;" horiz-adv-x="1183" d="M123 -315v1749l299 36v-512q75 148 295 148q186 0 283.5 -132.5t97.5 -432.5q0 -133 -27 -234.5t-70 -163.5t-105 -100.5t-124 -53t-135 -14.5q-156 0 -227 66q12 -59 12 -205v-151h-299zM422 250q78 -37 162 -37q115 0 164 73.5t49 254.5q0 166 -37.5 244.5t-145.5 78.5 q-67 0 -111.5 -32t-80.5 -97v-485z" />
<glyph unicode="&#xff;" horiz-adv-x="1089" d="M20 1053l324 45l213 -848l217 848l295 -29l-305 -917q-29 -88 -69.5 -161.5t-99.5 -141t-143 -119t-188 -82.5l-121 194q172 65 228 185zM160 1356q0 147 164 147q161 0 161 -147q0 -144 -161 -144q-164 0 -164 144zM631 1356q0 147 162 147q161 0 161 -147 q0 -144 -161 -144q-162 0 -162 144z" />
<glyph unicode="&#x152;" horiz-adv-x="2033" d="M96 717q0 384 144.5 562.5t472.5 178.5q152 0 258.5 -61t142.5 -164v201h828v-277h-615v-280h498l-23 -248h-475v-353h615v-276h-828v201q-36 -103 -142.5 -164.5t-258.5 -61.5q-327 0 -472 179t-145 563zM412 717q0 -94 7 -161t26.5 -128t53 -98t88 -58.5t130.5 -21.5 q74 0 127 21.5t85.5 58.5t51.5 97.5t26 128t7 161.5t-7 161.5t-26 128t-51.5 97.5t-85.5 58.5t-127 21.5q-76 0 -130.5 -21.5t-88 -58.5t-53 -98t-26.5 -128t-7 -161z" />
<glyph unicode="&#x153;" horiz-adv-x="1839" d="M86 541q0 293 120 429t392 136q269 0 356 -186q81 186 342 186q93 0 161 -15.5t128 -57.5t97 -113t58 -184t21 -269l-643 -68q13 -97 61.5 -139.5t143.5 -42.5q174 0 317 84l91 -207q-174 -119 -404 -119q-300 0 -373 189q-82 -189 -356 -189q-272 0 -392 136.5 t-120 429.5zM387 541q0 -83 8 -138t30 -100t64.5 -66.5t108.5 -21.5t108.5 21.5t64.5 66.5t30 100t8 138q0 66 -4.5 112.5t-18 89t-36.5 68t-61 40.5t-91 15t-91 -15t-61 -40.5t-36.5 -68t-18 -89t-4.5 -112.5zM1106 588l364 57q-3 117 -46 169t-128 52q-190 0 -190 -248 v-30z" />
<glyph unicode="&#x178;" horiz-adv-x="1331" d="M27 1399l372 53l267 -649l278 631h361l-488 -910v-524h-313v524zM268 1681q0 148 164 148q162 0 162 -148q0 -143 -162 -143q-164 0 -164 143zM739 1681q0 148 162 148t162 -148q0 -143 -162 -143t-162 143z" />
<glyph unicode="&#x2c6;" horiz-adv-x="956" d="M82 1315l291 250h211l290 -250l-135 -129l-260 166l-262 -166z" />
<glyph unicode="&#x2dc;" horiz-adv-x="1048" d="M82 1358q148 164 295 164q60 0 155.5 -45t147.5 -45q99 0 190 84l97 -160q-148 -164 -295 -164q-60 0 -155.5 45t-147.5 45q-100 0 -191 -84z" />
<glyph unicode="&#x2000;" horiz-adv-x="955" />
<glyph unicode="&#x2001;" horiz-adv-x="1911" />
<glyph unicode="&#x2002;" horiz-adv-x="955" />
<glyph unicode="&#x2003;" horiz-adv-x="1911" />
<glyph unicode="&#x2004;" horiz-adv-x="637" />
<glyph unicode="&#x2005;" horiz-adv-x="477" />
<glyph unicode="&#x2006;" horiz-adv-x="318" />
<glyph unicode="&#x2007;" horiz-adv-x="318" />
<glyph unicode="&#x2008;" horiz-adv-x="238" />
<glyph unicode="&#x2009;" horiz-adv-x="382" />
<glyph unicode="&#x200a;" horiz-adv-x="106" />
<glyph unicode="&#x2010;" horiz-adv-x="899" d="M119 477v285h661v-285h-661z" />
<glyph unicode="&#x2011;" horiz-adv-x="899" d="M119 477v285h661v-285h-661z" />
<glyph unicode="&#x2012;" horiz-adv-x="899" d="M119 477v285h661v-285h-661z" />
<glyph unicode="&#x2013;" horiz-adv-x="1191" d="M119 479v283h954v-283h-954z" />
<glyph unicode="&#x2014;" horiz-adv-x="1452" d="M119 479v283h1214v-283h-1214z" />
<glyph unicode="&#x2018;" horiz-adv-x="563" d="M57 760l234 710h215l-119 -690z" />
<glyph unicode="&#x2019;" horiz-adv-x="563" d="M57 774l119 690l330 21l-234 -711h-215z" />
<glyph unicode="&#x201a;" horiz-adv-x="563" d="M57 -287l119 690l330 21l-234 -711h-215z" />
<glyph unicode="&#x201c;" horiz-adv-x="974" d="M57 758l232 712h217l-121 -690zM469 758l233 712h216l-119 -690z" />
<glyph unicode="&#x201d;" horiz-adv-x="974" d="M57 770l119 690l330 23l-234 -713h-215zM469 770l121 690l328 23l-232 -713h-217z" />
<glyph unicode="&#x201e;" horiz-adv-x="974" d="M57 -287l119 690l330 21l-234 -711h-215zM469 -287l121 690l328 21l-232 -711h-217z" />
<glyph unicode="&#x2022;" horiz-adv-x="755" d="M92 662q0 139 73.5 209.5t213.5 70.5t212.5 -70.5t72.5 -209.5t-72.5 -210t-212.5 -71t-213.5 71t-73.5 210z" />
<glyph unicode="&#x2026;" horiz-adv-x="1564" d="M113 164q0 180 182 180t182 -180t-182 -180t-182 180zM598 164q0 180 182 180q90 0 136.5 -45.5t46.5 -134.5t-46.5 -134.5t-136.5 -45.5q-182 0 -182 180zM1087 164q0 89 46.5 134.5t136.5 45.5q182 0 182 -180t-182 -180q-90 0 -136.5 45.5t-46.5 134.5z" />
<glyph unicode="&#x202f;" horiz-adv-x="382" />
<glyph unicode="&#x2039;" horiz-adv-x="780" d="M94 502v237l475 344l117 -254l-354 -208l354 -209l-117 -254z" />
<glyph unicode="&#x203a;" horiz-adv-x="780" d="M94 412l355 209l-355 208l115 254l477 -344v-237l-477 -344z" />
<glyph unicode="&#x205f;" horiz-adv-x="477" />
<glyph unicode="&#x20ac;" horiz-adv-x="1228" d="M78 500v147h119v123h-119v148h129q31 278 163.5 409t389.5 131q115 0 205 -19t176 -75l-107 -244q-102 62 -262 62q-118 0 -175 -65.5t-75 -198.5h342v-148h-352v-123h352v-147h-340q20 -124 77 -186t171 -62q162 0 262 61l107 -243q-86 -56 -176.5 -75.5t-204.5 -19.5 q-254 0 -386 128t-165 397h-131z" />
<glyph unicode="&#x2122;" horiz-adv-x="1343" d="M68 1296v138h481v-138h-164v-479h-152v479h-165zM573 817l56 617h176l108 -408l99 408h188l55 -615l-157 -12l-19 410l-100 -400h-129l-109 400q0 -97 -10 -400h-158z" />
<glyph unicode="&#x25fc;" horiz-adv-x="1105" d="M0 0v1106h1106v-1106h-1106z" />
<glyph unicode="&#xfb01;" horiz-adv-x="1312" d="M51 825v222h154q-8 49 -8 104q0 163 90 253.5t266 90.5q76 0 156 -14l-25 -226q-54 7 -78 7q-67 0 -96 -25t-29 -86q0 -37 13 -104h387l299 34v-731q0 -250 26 -350h-280q-45 115 -45 371v454h-373v-825h-299v825h-158zM854 1356q0 151 176 151t176 -151 q0 -152 -176 -152t-176 152z" />
<glyph unicode="&#xfb02;" horiz-adv-x="1312" d="M51 825v222h154q-8 49 -8 104q0 163 90 253.5t266 90.5q76 0 156 -14l-25 -226q-54 7 -78 7q-67 0 -96 -25t-29 -86q0 -37 13 -104h237l-26 -222h-197v-825h-299v825h-158zM881 371v1065l299 34v-1120q0 -250 26 -350h-280q-45 115 -45 371z" />
<glyph unicode="&#xfb03;" horiz-adv-x="1984" d="M51 825v222h154q-8 49 -8 104q0 163 90 253.5t266 90.5q76 0 156 -14l-25 -226q-54 7 -78 7q-67 0 -96 -25t-29 -86q0 -37 13 -104h383q-9 55 -9 104q0 163 90 253.5t267 90.5q75 0 155 -14l-24 -226q-54 7 -78 7q-67 0 -96 -25t-29 -86q0 -43 12 -104h387l299 34v-731 q0 -246 27 -350h-281q-45 115 -45 371v454h-372v-825h-299v825h-373v-825h-299v825h-158zM1526 1356q0 151 176 151t176 -151q0 -152 -176 -152t-176 152z" />
<glyph unicode="&#xfb04;" horiz-adv-x="1984" d="M51 825v222h154q-8 49 -8 104q0 163 90 253.5t266 90.5q76 0 156 -14l-25 -226q-54 7 -78 7q-67 0 -96 -25t-29 -86q0 -37 13 -104h383q-9 55 -9 104q0 163 90 253.5t267 90.5q75 0 155 -14l-24 -226q-54 7 -78 7q-67 0 -96 -25t-29 -86q0 -43 12 -104h238l-27 -222h-196 v-825h-299v825h-373v-825h-299v825h-158zM1552 371v1065l299 34v-1120q0 -246 27 -350h-281q-45 115 -45 371z" />
</font>
</defs>
</svg>
